<?xml version="1.0" encoding="utf-8"?>
<!-- Generator: Adobe Illustrator 16.0.3, SVG Export Plug-In . SVG Version: 6.00 Build 0)  -->
<!DOCTYPE svg PUBLIC "-//W3C//DTD SVG 1.1//EN" "http://www.w3.org/Graphics/SVG/1.1/DTD/svg11.dtd" [
	<!ENTITY st0 "fill-rule:evenodd;clip-rule:evenodd;fill:#FFF">
	<!ENTITY st1 "fill-rule:evenodd;clip-rule:evenodd;fill:#FFFFFF;">
	<!ENTITY st2 "fill-rule:evenodd;clip-rule:evenodd;fill:#055795;">
]>
<svg version="1.1" id="Layer_1" xmlns="http://www.w3.org/2000/svg" xmlns:xlink="http://www.w3.org/1999/xlink" x="0px" y="0px"
	 width="960px" height="450px" viewBox="0 0 960 450" style="enable-background:new 0 0 960 450;" xml:space="preserve">
<g>
	<g>
		<path style="&st0;" d="M547.056,401.81c0,3.554,0,6.485,0,9.864c-9.736,0-19.337,0-29.359,0c0,5.818,0,11.209,0,17.217
			c10.681,0,21.403,0,32.354,0c0,3.539,0,6.471,0,9.732c-14.729,0-29.323,0-44.342,0c0-19.638,0-39.395,0-59.496
			c14.334,0,28.715,0,43.346,0c0,3.14,0,6.07,0,9.457c-10.391,0-20.656,0-31.347,0c0,4.491,0,8.542,0,13.226
			C527.38,401.81,537.104,401.81,547.056,401.81z"/>
		<path style="&st0;" d="M650.168,396.641c-3.984,0-7.621,0-11.219,0c-3.656-8.495-9.01-11.199-16.311-7.805
			c-1.795,0.834-3.925,3.165-3.991,4.884c-0.068,1.717,1.89,4.454,3.597,5.132c6.002,2.383,12.343,3.89,18.433,6.071
			c7.562,2.708,11.649,8.69,11.651,16.345c0.002,7.697-4.309,14.53-11.932,16.617c-5.322,1.457-11.213,2.131-16.668,1.52
			c-11.933-1.338-16.973-6.849-19.146-19.209c3.596-0.407,7.175-0.812,11.076-1.255c0.484,0.97,1.041,1.923,1.455,2.934
			c3.129,7.628,12.041,10.942,18.943,6.499c2.035-1.31,3.967-4.449,3.965-6.75c0-1.871-2.607-4.623-4.67-5.447
			c-6.148-2.455-12.75-3.775-18.889-6.251c-6.77-2.729-10.607-9.161-10.033-15.823c0.594-6.895,3.957-12.185,10.688-14.293
			c4.051-1.269,8.478-1.977,12.712-1.889C642.1,378.176,648.898,384.529,650.168,396.641z"/>
		<path style="&st0;" d="M863.24,379.14c0,19.896,0,39.524,0,59.47c-3.765,0-7.356,0-11.375,0c-0.186-1.381-0.396-2.943-0.627-4.662
			c-0.497,0.223-1.025,0.307-1.322,0.614c-10.185,10.552-24,4.413-27.002-8.557c-1.41-6.093-1.265-13.077,0.162-19.192
			c2.984-12.793,15.144-16.133,28.21-7.969c0-6.701,0-13.047,0-19.704C855.481,379.14,859.069,379.14,863.24,379.14z
			 M852.031,417.578c-0.668-3.417-0.492-6.83-2.01-9.108c-1.625-2.438-4.824-5.205-7.38-5.247c-2.582-0.043-6.393,2.496-7.589,4.93
			c-2.793,5.681-2.734,12.176,0.256,17.812c1.223,2.303,4.714,4.537,7.269,4.649c2.304,0.103,5.467-2.239,6.922-4.402
			C851.141,423.771,851.299,420.326,852.031,417.578z"/>
		<path style="&st0;" d="M697.669,438.809c-2.868,0-6.185,0-9.843,0c-0.596-1.371-1.234-2.837-2.016-4.63
			c-4.955,3.933-10.104,7.187-16.859,5.14c-5.768-1.748-9.297-6.019-9.537-11.979c-0.233-5.802,2.625-10.547,8.101-12.461
			c4.376-1.529,9.011-2.305,13.401-3.797c1.371-0.465,3.371-2.332,3.23-3.279c-0.246-1.639-1.74-4.1-3.064-4.354
			c-2.595-0.498-6.887-0.734-7.908,0.726c-3.545,5.071-7.771,2.788-13.041,2.419c1.805-3.084,2.918-6.059,4.92-8.201
			c5.657-6.059,22.24-6.444,27.722-0.281c2.184,2.456,2.952,6.562,3.441,10.048c0.572,4.097-0.014,8.343,0.184,12.51
			C696.679,426.59,697.215,432.498,697.669,438.809z M684.072,419.016c-2.994,0.736-5.771,1.271-8.45,2.115
			c-2.981,0.941-5.237,2.768-3.927,6.281c1.266,3.393,4.117,4.197,7.396,3.227C683.38,429.368,684.689,426.352,684.072,419.016z"/>
		<path style="&st0;" d="M813.824,438.774c-2.951,0-6.427,0-9.99,0c-0.58-1.419-1.146-2.803-1.812-4.431
			c-2.069,1.311-4.04,2.779-6.196,3.884c-5.49,2.813-12.324,2.007-16.372-1.754c-3.698-3.436-5.405-9.987-2.798-14.749
			c1.538-2.81,4.4-5.463,7.304-6.814c4.151-1.934,8.919-2.497,13.344-3.902c1.196-0.379,2.991-1.729,2.948-2.553
			c-0.084-1.597-1.054-4.289-2.051-4.481c-2.921-0.566-7.602-1.365-8.787,0.144c-3.831,4.874-7.989,3-12.547,2.401
			c1.48-6.47,4.959-11.051,11.498-11.747c5.191-0.553,10.623-0.417,15.752,0.503c4.245,0.762,7.436,3.883,7.691,8.729
			c0.324,6.159,0.317,12.336,0.656,18.494C812.754,427.754,813.33,432.994,813.824,438.774z M800.014,419.072
			c-2.733,0.662-5.488,1.2-8.16,2.012c-2.967,0.9-5.373,2.637-4.138,6.168c1.278,3.651,4.278,4.461,7.747,3.258
			C799.723,429.032,800.947,425.877,800.014,419.072z"/>
		<path style="&st0;" d="M917.484,417.174c-0.244,13.168-10.01,22.93-22.744,22.738c-13.465-0.202-22.353-9.632-22.201-23.554
			c0.145-13.187,9.794-22.684,22.849-22.483C908.272,394.07,917.728,404.039,917.484,417.174z M905.678,417.457
			c-0.148-2.068-0.104-3.588-0.389-5.043c-1.117-5.67-5.057-9.424-9.905-9.582c-5.124-0.168-9.532,3.428-10.52,9.361
			c-0.534,3.204-0.429,6.685,0.207,9.877c1.132,5.678,4.997,8.853,9.827,8.901c4.867,0.049,8.57-3.071,10.05-8.667
			C905.41,420.559,905.498,418.714,905.678,417.457z"/>
		<path style="&st0;" d="M748.922,424.394c3.022-8.766,6.034-16.369,8.197-24.208c1.228-4.453,3.311-6.021,7.663-5.365
			c1.737,0.262,3.547,0.043,6.017,0.043c-5.16,13.544-10.236,26.359-14.871,39.332c-1.363,3.815-3.217,4.984-7.159,4.893
			c-3.545-0.083-5.191-1.114-6.436-4.522c-4.343-11.892-9.097-23.631-13.666-35.438c-0.468-1.205-0.751-2.482-1.278-4.258
			c3.363,0,6.379-0.352,9.242,0.158c1.299,0.232,2.834,1.977,3.342,3.371C742.99,406.671,745.738,415.043,748.922,424.394z"/>
		<path style="&st0;" d="M572.02,438.711c-3.941,0-7.529,0-11.41,0c0-19.869,0-39.503,0-59.53c3.703,0,7.406,0,11.41,0
			C572.02,398.904,572.02,418.537,572.02,438.711z"/>
		<path style="&st0;" d="M721.004,438.807c-3.869,0-7.34,0-11.195,0c0-19.874,0-39.623,0-59.687c3.629,0,7.217,0,11.195,0
			C721.004,398.824,721.004,418.572,721.004,438.807z"/>
		<path style="&st0;" d="M951.26,406.801c-8.89-1.927-12.112,0.359-12.542,9.024c-0.37,7.472-0.077,14.976-0.077,22.78
			c-4.113,0-7.707,0-11.686,0c0-14.346,0-28.764,0-43.457c3.696,0,7.302,0,11.248,0c0.18,1.27,0.37,2.621,0.695,4.928
			c3.377-5.023,7.342-8.486,12.34-4.842C955.579,398.4,951.113,402.63,951.26,406.801z"/>
	</g>
	<g>
		<g>
			<path style="&st0;" d="M611.203,326.464c8.369-49,16.736-98.001,25.162-147.335c3.365,0,6.34-0.011,9.313,0.001
				c81.03,0.357,162.06,0.71,243.089,1.079c20.008,0.091,40.016,0.42,60.019,0.231c5.155-0.049,6.977,1.479,6.245,6.506
				c-0.301,2.07-0.05,4.222-0.05,6.058c-102.735,0-204.709,0-307.545,0c-10.382,60.642-20.86,121.847-31.339,183.052
				c-0.531,0.087-1.063,0.173-1.596,0.261c-30.707-82.651-61.416-165.302-92.125-247.953c-0.33,0.056-0.66,0.111-0.99,0.167
				c0,74.208,0,148.417,0,222.941c-4.594,0-8.646,0-13.076,0c0-98.269,0-196.307,0-294.344c0.385-0.141,0.769-0.282,1.152-0.423
				C543.845,146.396,576.303,236.82,611.203,326.464z"/>
			<path style="&st0;" d="M930.644,285.486c-0.692,21.73-5.769,40.689-22.291,53.949c-21.966,17.63-46.942,20.183-72.318,8.924
				c-24.604-10.916-35.369-32.111-36.403-58.177c-0.812-20.479,3.776-39.776,19.469-54.34c20.51-19.032,44.83-21.89,70.301-13.102
				c24.455,8.437,36.791,27.371,40.213,52.556C930.129,279.093,930.39,282.924,930.644,285.486z M817.052,286.926
				c0.479,4.654,0.757,8.986,1.392,13.265c3.002,20.207,17.689,34.557,38.863,38.104c20.584,3.448,40.751-6.226,49.568-24.05
				c6.477-13.096,6.869-27.029,4.549-41.113c-3.696-22.438-21.377-38.203-43.152-38.775c-26.416-0.695-44.225,12.363-49.291,36.46
				C817.855,276.172,817.65,281.723,817.052,286.926z"/>
			<path style="&st0;" d="M258.555,88.019c4.893,0,8.844,0,13.612,0c-1.36,85.504-2.716,170.772-4.082,256.689
				c67.261,0,134.017,0,201.256,0c0,4.581,0,8.521,0,13.323c-2.302,0-4.382,0-6.463,0c-66.362,0.028-132.724,0.054-199.086,0.086
				c-4.27,0.002-8.976-5.413-8.924-10.43c0.172-16.713,0.331-33.425,0.584-50.136c1.016-67.011,2.067-134.021,3.098-201.031
				C258.591,93.861,258.555,91.201,258.555,88.019z"/>
			<path style="&st0;" d="M102.048,224.416c2.187-5.847,4.089-11.144,6.141-16.382c14.532-37.106,29.16-74.175,43.545-111.339
				c1.449-3.743,3.137-5.337,7.176-4.986c5.125,0.445,11.463-1.42,15.114,0.997c3.619,2.396,4.662,8.826,6.64,13.568
				c15.663,37.545,31.282,75.108,46.904,112.67c0.625,1.502,1.139,3.049,2.006,5.389c-6.677,0-12.758,0.2-18.805-0.175
				c-1.151-0.071-2.585-2.242-3.172-3.728c-4.347-11.01-8.576-22.067-12.689-33.166c-1.06-2.857-2.466-4.113-5.755-4.074
				c-16.337,0.194-32.678,0.18-49.016,0.022c-3.201-0.031-4.754,0.994-5.791,4.018c-3.836,11.191-8.002,22.269-11.831,33.463
				c-0.974,2.846-2.369,3.938-5.38,3.788C112.339,224.24,107.522,224.416,102.048,224.416z M141.48,168.7c15.35,0,30.382,0,46.129,0
				c-7.969-20.692-15.718-40.811-23.558-61.167C156.454,128.123,149.046,148.196,141.48,168.7z"/>
			<path style="&st0;" d="M111.966,92.039c0,5.458,0,10.41,0,15.918c-14.804,0-29.387,0-44.537,0c0,38.889,0,77.229,0,116.02
				c-6.274,0-11.993,0-18.306,0c0-38.236,0-76.575,0-115.628c-15.27,0-29.976,0-45.043,0c0-5.783,0-10.854,0-16.31
				C39.967,92.039,75.703,92.039,111.966,92.039z"/>
			<path style="&st0;" d="M744.574,352.552c-6.428,0-11.901,0-17.975,0c0-38.61,0-77.093,0-116.021c-15.19,0-29.79,0-44.795,0
				c0-5.483,0-10.53,0-15.9c35.639,0,71.24,0,107.236,0c0,5.005,0,10.056,0,15.564c-14.675,0-29.273,0-44.467,0
				C744.574,275.118,744.574,313.6,744.574,352.552z"/>
		</g>
		<g>
			<path style="&st0;" d="M51.75,44.323c0.048-13.581,9.423-22.882,23.022-22.839c13.288,0.042,22.583,9.739,22.476,23.45
				c-0.105,13.504-9.705,23.194-22.917,23.133C60.503,68.002,51.699,58.744,51.75,44.323z M64.208,45.581
				c0.177,0.944,0.437,3.089,0.997,5.152c1.26,4.646,4.263,7.494,9.144,7.819c4.322,0.288,8.322-2.902,9.498-7.933
				c0.702-3.003,1.016-6.288,0.601-9.322c-0.9-6.575-5.042-10.438-10.183-10.278c-4.946,0.155-8.979,4.575-9.866,10.854
				C64.283,42.692,64.307,43.531,64.208,45.581z"/>
			<path style="&st0;" d="M330.896,34.594c-2.985,0.373-5.782,0.974-8.577,0.965c-1.375-0.004-3.129-0.791-4.051-1.819
				c-3.352-3.739-7.366-3.375-11.459-2.146c-0.998,0.3-2.07,1.692-2.29,2.753c-0.131,0.632,1.188,2.017,2.105,2.333
				c3.294,1.138,6.702,1.945,10.055,2.916c2.55,0.738,5.18,1.31,7.606,2.349c8.851,3.792,10.91,13.718,4.029,20.389
				c-7.02,6.806-15.733,6.644-24.394,4.428c-6.81-1.742-10.914-6.579-12.707-13.733c2.791-0.377,5.26-0.656,7.708-1.059
				c2.53-0.417,4.146,0.108,5.545,2.71c2.279,4.237,9.082,5.559,13.185,2.85c1.075-0.709,2.261-2.382,2.136-3.467
				c-0.125-1.075-1.683-2.479-2.883-2.845c-4.45-1.354-9.062-2.169-13.52-3.498c-8.005-2.385-11.677-6.812-11.313-13.198
				c0.361-6.309,4.682-11.099,12.506-12.144c5.165-0.689,10.667-0.449,15.785,0.563C326.165,24.089,329.656,28.381,330.896,34.594z"
				/>
			<path style="&st0;" d="M187.836,54.213c-3.487,10.148-10.515,14.646-20.88,13.714c-9.926-0.892-16.722-7.617-17.752-18.441
				c-0.418-4.397-0.06-9.062,0.958-13.363c2.178-9.209,9.679-14.638,19.014-14.567c9.523,0.073,16.555,5.439,18.847,14.777
				c0.858,3.498,1.012,7.17,1.58,11.466c-9.784,0-18.859,0-27.931,0c0.14,6.647,2.868,10.661,7.243,10.751
				c1.534,0.032,3.414-0.511,4.577-1.471C179.241,52.334,179.175,52.254,187.836,54.213z M176.6,40.259
				c-0.516-6.346-3.056-9.428-7.583-9.307c-4.309,0.114-6.886,3.368-7.11,9.307C166.803,40.259,171.695,40.259,176.6,40.259z"/>
			<path style="&st0;" d="M287.923,47.956c-10.43,0-19.376,0-28.496,0c-0.031,4.921,1.384,8.774,5.906,10.265
				c1.75,0.578,5.331,0.152,5.885-0.937c3.626-7.12,9.269-3.391,14.3-3.459c-1.417,7.661-6.68,12.67-14.402,13.917
				c-8.85,1.43-17.427-2.209-20.966-9.229c-4.311-8.551-4.455-17.437-0.486-26.06c3.465-7.529,9.826-11.11,18.113-10.808
				c8.246,0.301,14.456,4.121,17.282,11.997C286.586,37.895,286.897,42.586,287.923,47.956z M274.812,40.418
				c-0.625-6.479-3.261-9.598-7.704-9.525c-4.387,0.071-7.065,3.461-7.339,9.525C264.689,40.418,269.6,40.418,274.812,40.418z"/>
			<path style="&st0;" d="M238.052,66.715c-4.228,0-7.83,0-12.065,0c0-7.695,0.014-15.152-0.009-22.609
				c-0.007-2.168,0.024-4.353-0.221-6.5c-0.385-3.372-1.663-6.366-5.542-6.642c-3.927-0.28-7.062,1.695-7.857,5.53
				c-0.871,4.197-0.958,8.586-1.086,12.9c-0.167,5.632-0.041,11.273-0.041,17.24c-4.229,0-7.946,0-11.979,0
				c0-14.642,0-29.063,0-43.796c3.852,0,7.45,0,11.481,0c0.276,1.229,0.58,2.584,0.92,4.1c0.531-0.21,0.999-0.313,1.377-0.558
				c1.811-1.173,3.471-2.665,5.413-3.533c9.106-4.075,18.827,1.054,19.454,10.954C238.58,44.572,238.052,55.422,238.052,66.715z"/>
			<path style="&st0;" d="M4.177,47.466c3.927-0.353,7.687-0.69,11.544-1.037c0.578,2.31,0.972,4.087,1.47,5.834
				c0.981,3.441,3.159,5.493,6.866,5.256c3.383-0.216,5.638-1.97,6.031-5.521c0.312-2.808,0.629-5.632,0.646-8.452
				c0.07-12.159,0.03-24.318,0.03-36.172c0.734-0.489,0.987-0.796,1.27-0.827c11.294-1.24,11.296-1.237,11.277,9.977
				c-0.018,10.359-0.126,20.719-0.04,31.077C43.43,66.618,27.176,70.77,14.953,66.923C7.413,64.55,3.163,56.843,4.177,47.466z"/>
			<path style="&st0;" d="M100.902,22.493c3.409,0,6.57-0.344,9.591,0.16c1.304,0.218,2.857,1.991,3.374,3.399
				c2.975,8.097,5.673,16.297,8.707,25.169c2.704-7.928,5.488-15.068,7.525-22.416c1.392-5.023,3.824-7.316,9.06-6.348
				c1.553,0.287,3.18,0.174,5.549,0.278c-4.124,10.913-7.984,21.144-11.86,31.369c-0.826,2.178-2.104,4.267-2.489,6.515
				c-1.036,6.046-4.889,7.365-10.05,6.294c-1.447-0.3-3.335-1.528-3.852-2.805c-5.168-12.804-10.101-25.704-15.065-38.59
				C101.109,24.787,101.125,23.939,100.902,22.493z"/>
			<path style="&st0;" d="M69.501,17.483c3.24-11.721,5.879-13.418,17.546-11.551C83.542,13.558,76.337,18.416,69.501,17.483z"/>
		</g>
		<g class="logo-e">
			<path style="&st2;" d="M375.926,102.056c-8.542,3.975-17.582,7.15-25.522,12.097c-15.395,9.591-23.027,24.564-25.31,42.239
				c-0.749,5.797-0.118,11.772-0.118,18.356c7.256-4.256,13.454-8.419,20.094-11.672c12.35-6.048,25.122-10.606,39.323-7.994
				c14.324,2.634,24.113,11.999,27.173,26.389c3.563,16.759,0.269,31.218-14.548,41.429c-7.034,4.847-15.186,6.601-23.578,7.243
				c-14.72,1.127-28.365-2.361-41.083-9.754c-1.143-0.664-2.335-1.24-3.695-1.958c-10.38,14.759-17.906,30.096-11.559,48.55
				c4.282,12.447,13.015,21.624,23.884,28.527c13.319,8.457,28.042,10.074,43.624,8.669c20.499-1.849,38.941-9.151,56.699-18.891
				c1.379-0.755,2.874-1.298,4.657-2.093c-1.064,5.994-12.458,15.045-25.686,19.747c-10.321,3.669-21.026,6.251-31.039,9.165
				c16.143,5.697,61.53-18.756,83.422-46.003c-0.602,6.824-4.597,10.567-8.358,14.213c-6.813,6.601-13.819,13.011-20.927,19.292
				c-12.128,10.723-26.616,15.992-42.478,17.86c-2.914,0.343-5.852,0.48-9.068,0.735c1.499,3.569,3.009,5.006,6.679,3.967
				c9.787-2.773,19.71-5.062,29.732-7.581c-22.107,14.128-46.231,13.731-70.591,9.575c-25.198-4.299-45.587-16.809-60.665-38.1
				c0.642,1.338,1.143,2.768,1.947,3.999c9.208,14.093,21.495,24.357,37.333,30.282c2.1,0.785,5.37,0.434,5.296,4.437
				c-0.012,0.624,3.068,1.681,4.798,1.899c11.85,1.491,23.719,2.838,35.59,4.161c1.785,0.199,3.611,0.028,5.827,1.108
				c-1.592,0.726-3.118,1.821-4.787,2.123c-41.812,7.568-88.229-15.127-99.513-61.898c-6.892-28.568-1.056-54.266,19.655-75.806
				c2.772-2.884,3.166-5.233,1.808-9.189c-3.918-11.412-3.865-23.219-0.952-34.998c-0.29,4.594-0.927,9.201-0.771,13.779
				c0.156,4.598,1.104,9.169,2.616,13.684c-0.164-3.624-0.482-7.249-0.467-10.872c0.1-25.199,8.878-46.644,28.125-63.188
				c12.772-10.979,28.092-16.842,44.517-19.262c21.078-3.105,41.419-0.08,60.525,9.77c8.516,4.389,16.535,9.767,21.861,17.753
				c5.14,7.708,8.431,16.503,10.754,25.502c-0.526,0.267-1.053,0.533-1.58,0.8c-1.205-2.167-2.7-4.223-3.563-6.518
				c-4.433-11.763-12.711-20.135-23.047-26.74c-0.792-0.507-1.777-0.709-3.001-0.69c8.384,6.259,16.168,12.947,19.6,23.373
				c-2.904-3.099-5.623-6.4-8.744-9.262c-13.504-12.383-29.293-19.523-47.766-19.528c-9.098-0.002-18.195,0.911-27.284,1.405
				c4.776-1.382,9.543-2.759,14.31-4.136c-0.973-1.299-1.623-1.529-2.256-1.487c-21.733,1.433-41.097,8.655-55.539,25.466
				c-12.086,14.069-17.388,30.848-15.453,49.599c1.03,9.972,5.531,18.329,12.276,25.618c-2.586,3.014-5.105,5.669-7.31,8.564
				c-12.674,16.643-21.451,34.619-17.79,56.379c1.947,11.575,6.715,21.809,16.029,29.454c5.611,8.951,14.635,12.963,23.405,17.342
				c0.299-0.428,0.599-0.855,0.897-1.283c-7.975-5.48-15.95-10.959-23.925-16.439c-0.451-0.861-0.759-1.844-1.373-2.565
				c-5.945-6.998-10.023-15.032-11.627-23.992c-4.72-26.351,7.125-46.547,24.13-64.7c1.901,1.099,3.363,1.944,4.825,2.79
				c0.191-0.24,0.381-0.48,0.572-0.72c-0.885-1.48-1.771-2.961-2.634-4.406c12.744-12.245,27.81-19.766,44.685-23.995
				c-19.68-1.794-33.277,10.229-47.549,20.966c-10.146-11.391-12.503-24.368-10.198-38.817
				C325.998,126.004,347.592,107.11,375.926,102.056z M345.151,200.131c8.605,3.666,16.74,6.502,25.303,5.098
				c5.387-0.883,12.451-2.219,15.1-5.958c2.365-3.339,0.623-10.56-1.007-15.505c-1.547-4.696-6.984-4.744-10.837-3.243
				c-8.268,3.222-16.279,7.156-24.21,11.165c-2.678,1.353-4.8,3.809-7.176,5.761c0.271,0.36,0.541,0.72,0.812,1.08
				c1.474-0.483,2.947-0.966,4.823-1.58C346.986,198.05,346.305,198.824,345.151,200.131z M311.845,200.182
				c-0.471-0.116-0.942-0.232-1.413-0.349c-21.161,22.403-29.137,59.419-15.29,81.535c-0.063-1.111,0.068-1.8-0.157-2.338
				c-5.334-12.745-4.442-25.784-1.463-38.773c2.946-12.85,9.248-24.168,16.879-34.818
				C311.394,204.055,311.389,201.952,311.845,200.182z M391.647,187.972c1.299,14.72-2.799,21.633-25.15,23.641
				c4.786,2.943,16.416,0.581,21.683-4.405C393.823,201.868,395.147,194.521,391.647,187.972z M326.658,217.06
				c-0.638-0.324-1.276-0.647-1.914-0.971c-3.41,6.779-6.82,13.56-10.229,20.339c0.433,0.215,0.867,0.432,1.3,0.646
				C319.429,230.403,323.043,223.731,326.658,217.06z M383.821,166.621c10.411,3.322,15.177,10.294,16.899,21.012
				C402.635,177.526,393.312,166.047,383.821,166.621z M388.646,216.035c-8.719,1.385-17.192,2.73-25.753,4.089
				C371.788,220.936,380.491,221.077,388.646,216.035z"/>
			<path style="&st2;" d="M413.67,85.386c-16.374-2.965-32.678-2.411-49.04,0.529c3.805-0.9,7.588-2.454,11.417-2.577
				c10.938-0.351,21.895-0.208,32.84-0.018c1.58,0.027,3.135,1.384,4.703,2.125L413.67,85.386z"/>
			<path style="&st2;" d="M457.215,292.997c7.448-9.248,14.432-17.919,20.864-25.907
				C474.428,277.184,466.762,285.354,457.215,292.997z"/>
			<path style="&st2;" d="M413.59,85.445c7.968-1.072,14.406,3.37,21.338,6.032c-7.07-2.042-14.141-4.084-21.235-6.109
				C413.67,85.386,413.59,85.445,413.59,85.445z"/>
			<path style="&st1;" d="M375.926,102.056c-28.334,5.054-49.928,23.948-54.686,53.77c-2.305,14.449,0.051,27.426,10.198,38.817
				c14.272-10.738,27.87-22.761,47.549-20.966c-16.875,4.229-31.941,11.75-44.685,23.995c0.864,1.445,1.749,2.926,2.634,4.406
				c-0.191,0.24-0.381,0.48-0.572,0.72c-1.461-0.845-2.924-1.69-4.825-2.79c-17.005,18.152-28.85,38.349-24.13,64.7
				c1.604,8.96,5.682,16.994,11.627,23.992c0.614,0.722,0.922,1.704,1.373,2.565c-0.125,0.128-0.25,0.255-0.377,0.381
				c-9.313-7.646-14.082-17.879-16.029-29.454c-3.662-21.761,5.115-39.737,17.79-56.379c2.205-2.895,4.723-5.55,7.31-8.564
				c-6.745-7.289-11.246-15.646-12.276-25.618c-1.936-18.751,3.366-35.53,15.453-49.599c14.442-16.811,33.806-24.033,55.539-25.466
				c0.633-0.042,1.283,0.188,2.256,1.487c-4.767,1.377-9.534,2.753-14.31,4.136C375.756,102.195,375.926,102.056,375.926,102.056z"
				/>
			<path style="&st1;" d="M311.845,200.182c-0.457,1.77-0.451,3.873-1.443,5.256c-7.632,10.65-13.934,21.969-16.879,34.818
				c-2.979,12.989-3.871,26.028,1.463,38.773c0.225,0.538,0.094,1.227,0.157,2.338c-13.847-22.115-5.871-59.132,15.29-81.535
				C310.903,199.95,311.375,200.066,311.845,200.182z"/>
			<path style="&st1;" d="M391.647,187.972c3.5,6.549,2.175,13.896-3.467,19.236c-5.267,4.985-16.897,7.348-21.683,4.405
				C388.849,209.605,392.947,202.692,391.647,187.972z"/>
			<path style="&st1;" d="M320.409,291.266c7.975,5.48,15.95,10.959,23.925,16.439c-0.299,0.428-0.598,0.855-0.897,1.283
				c-8.77-4.379-17.793-8.391-23.405-17.342C320.159,291.521,320.284,291.394,320.409,291.266z"/>
			<path style="&st1;" d="M326.658,217.06c-3.614,6.671-7.229,13.343-10.843,20.014c-0.434-0.215-0.867-0.432-1.3-0.646
				c3.41-6.779,6.819-13.56,10.229-20.339C325.382,216.413,326.02,216.736,326.658,217.06z"/>
			<path style="&st1;" d="M383.821,166.621c9.492-0.574,18.814,10.905,16.899,21.012
				C398.998,176.916,394.231,169.943,383.821,166.621z"/>
			<path style="&st1;" d="M388.646,216.035c-8.155,5.042-16.858,4.901-25.753,4.089C371.454,218.765,379.927,217.42,388.646,216.035
				z"/>
			<path style="&st2;" d="M382.874,192.517c-2.128-8.872-2.128-8.872-18.494-6.832c3.178-0.801,6.315-1.893,9.542-2.344
				C381.5,182.282,382.858,183.627,382.874,192.517z"/>
		</g>
	</g>
</g>
</svg>
